<svg xmlns="http://www.w3.org/2000/svg" xmlns:xlink="http://www.w3.org/1999/xlink" width="500" zoomAndPan="magnify" viewBox="0 0 375 374.999991" height="500" preserveAspectRatio="xMidYMid meet" version="1.2"><defs><clipPath id="914ac00593"><path d="M 131 142.199219 L 197 142.199219 L 197 167 L 131 167 Z M 131 142.199219 "/></clipPath><clipPath id="f07fac19c1"><path d="M 50.636719 147 L 324.386719 147 L 324.386719 221 L 50.636719 221 Z M 50.636719 147 "/></clipPath></defs><g id="67e70409a5"><g clip-rule="nonzero" clip-path="url(#914ac00593)"><path style=" stroke:none;fill-rule:nonzero;fill:#004aad;fill-opacity:1;" d="M 156.355469 147.78125 C 169.488281 144.933594 182.898438 143.402344 196.304688 142.199219 C 191.761719 145.207031 186.453125 146.792969 181.476562 148.929688 C 165.167969 155.222656 148.914062 161.953125 131.894531 166.003906 C 145.027344 160.257812 157.941406 154.128906 171.132812 148.492188 C 166.207031 148 161.226562 148.328125 156.355469 147.78125 Z M 156.355469 147.78125 "/></g><path style=" stroke:none;fill-rule:nonzero;fill:#004aad;fill-opacity:1;" d="M 155.535156 172.023438 C 167.082031 157.300781 185.46875 151.554688 201.613281 143.511719 C 209.546875 146.628906 217.703125 149.257812 225.746094 152.101562 C 220.765625 154.238281 215.292969 154.785156 210.042969 156.207031 C 191.542969 160.421875 173.648438 166.769531 155.535156 172.023438 Z M 155.535156 172.023438 "/><path style=" stroke:none;fill-rule:nonzero;fill:#004aad;fill-opacity:1;" d="M 99.113281 150.570312 C 106.171875 149.203125 113.234375 147.726562 120.402344 146.792969 C 131.785156 145.753906 143.167969 147.671875 154.496094 148.765625 C 145.246094 149.640625 135.78125 151.554688 126.53125 149.96875 C 124.34375 149.585938 122.097656 149.640625 119.964844 150.132812 C 114.820312 151.335938 109.785156 152.871094 104.804688 154.457031 C 116.734375 155.550781 128.71875 153.691406 140.703125 154.675781 C 129.59375 158.78125 117.664062 160.695312 106.554688 165.074219 C 100.753906 161.515625 94.734375 158.34375 88.824219 154.949219 C 91.234375 151.71875 95.445312 151.445312 99.113281 150.570312 Z M 99.113281 150.570312 "/><g clip-rule="nonzero" clip-path="url(#f07fac19c1)"><path style=" stroke:none;fill-rule:nonzero;fill:#004aad;fill-opacity:1;" d="M 268.433594 207.320312 C 264.328125 205.84375 260.167969 204.640625 256.121094 202.996094 C 256.066406 202.558594 256.066406 202.394531 255.957031 201.957031 C 278.503906 183.789062 301.320312 166.058594 324.253906 148.382812 C 289.5 145.917969 254.859375 151.71875 221.09375 159.21875 C 183.171875 167.917969 145.957031 179.683594 109.511719 193.3125 C 106.996094 194.242188 104.421875 195.28125 102.070312 196.648438 C 153.238281 181.875 205.007812 168.519531 257.761719 160.804688 C 281.457031 157.574219 306.027344 155.769531 306.027344 155.769531 C 300.390625 159.054688 294.863281 162.554688 289.5 166.332031 C 284.632812 166.605469 279.816406 166.878906 274.945312 167.425781 C 274.890625 167.425781 274.890625 167.425781 274.835938 167.425781 C 274.835938 167.425781 274.78125 167.425781 274.78125 167.425781 C 270.457031 167.808594 266.242188 168.246094 262.085938 168.792969 C 261.8125 168.847656 261.59375 168.847656 261.316406 168.902344 C 197.070312 176.839844 150.5 197.085938 148.695312 197.90625 C 178.082031 189.097656 208.070312 181.601562 238.441406 177.386719 C 238.773438 177.332031 239.046875 177.277344 239.375 177.277344 C 249.496094 175.910156 257.925781 175.140625 264.328125 174.648438 C 265.804688 174.539062 267.230469 174.429688 268.488281 174.375 C 271.824219 174.265625 275.109375 174.046875 278.445312 173.992188 C 267.394531 182.367188 255.902344 190.082031 244.792969 198.292969 C 242.765625 200.097656 239.757812 200.042969 237.128906 200.316406 C 228.046875 201.246094 219.453125 204.367188 211.191406 207.976562 C 207.25 209.671875 202.488281 209.671875 198.273438 209.617188 C 191.488281 209.5625 184.648438 209.34375 178.355469 206.609375 C 169.324219 202.667969 159.203125 200.644531 149.40625 201.902344 C 146.011719 202.339844 142.730469 203.378906 139.609375 204.75 C 130.855469 208.578125 121.988281 212.574219 112.300781 212.792969 C 99.605469 212.246094 88.769531 203.816406 76.019531 203.378906 C 67.375 202.886719 58.835938 204.96875 50.738281 207.867188 C 59.546875 208.03125 68.796875 205.023438 77.222656 208.851562 C 85.707031 212.683594 94.351562 217.171875 103.929688 217.0625 C 118.378906 216.625 131.128906 207.59375 145.683594 207.976562 C 156.246094 208.359375 165.113281 214.925781 175.179688 217.390625 C 178.082031 218.265625 181.089844 218.484375 184.101562 218.484375 C 188.808594 218.429688 193.460938 217.5 197.890625 216.078125 C 208.179688 212.683594 219.289062 209.015625 230.015625 210.878906 C 242.382812 212.847656 252.78125 222.261719 265.75 220.835938 C 277.679688 220.5625 287.039062 211.425781 298.96875 211.425781 C 289.117188 207.101562 278.117188 211.753906 268.433594 207.320312 Z M 268.433594 207.320312 "/></g><g style="fill:#004aad;fill-opacity:1;"><g transform="translate(42.233551, 261.510868)"><path style="stroke:none" d="M 9.46875 -23.484375 L 0.875 -23.484375 L 0.875 -29.515625 L 24.5 -29.515625 L 24.5 -23.484375 L 15.90625 -23.484375 L 15.90625 0 L 9.46875 0 Z M 9.46875 -23.484375 "/></g></g><g style="fill:#004aad;fill-opacity:1;"><g transform="translate(72.634253, 261.510868)"><path style="stroke:none" d="M 16.78125 0.609375 C 14.613281 0.609375 12.601562 0.210938 10.75 -0.578125 C 8.894531 -1.367188 7.285156 -2.453125 5.921875 -3.828125 C 4.554688 -5.210938 3.484375 -6.835938 2.703125 -8.703125 C 1.929688 -10.566406 1.546875 -12.585938 1.546875 -14.765625 C 1.546875 -16.929688 1.929688 -18.953125 2.703125 -20.828125 C 3.484375 -22.710938 4.554688 -24.34375 5.921875 -25.71875 C 7.285156 -27.101562 8.894531 -28.1875 10.75 -28.96875 C 12.601562 -29.75 14.613281 -30.140625 16.78125 -30.140625 C 18.925781 -30.140625 20.929688 -29.75 22.796875 -28.96875 C 24.660156 -28.1875 26.273438 -27.101562 27.640625 -25.71875 C 29.015625 -24.34375 30.085938 -22.710938 30.859375 -20.828125 C 31.640625 -18.953125 32.03125 -16.929688 32.03125 -14.765625 C 32.03125 -12.585938 31.640625 -10.566406 30.859375 -8.703125 C 30.085938 -6.835938 29.015625 -5.210938 27.640625 -3.828125 C 26.273438 -2.453125 24.660156 -1.367188 22.796875 -0.578125 C 20.929688 0.210938 18.925781 0.609375 16.78125 0.609375 Z M 16.78125 -5.640625 C 18.019531 -5.640625 19.148438 -5.863281 20.171875 -6.3125 C 21.203125 -6.769531 22.09375 -7.410156 22.84375 -8.234375 C 23.59375 -9.054688 24.179688 -10.023438 24.609375 -11.140625 C 25.035156 -12.265625 25.25 -13.472656 25.25 -14.765625 C 25.25 -16.054688 25.035156 -17.257812 24.609375 -18.375 C 24.179688 -19.488281 23.59375 -20.445312 22.84375 -21.25 C 22.09375 -22.0625 21.203125 -22.703125 20.171875 -23.171875 C 19.148438 -23.640625 18.019531 -23.875 16.78125 -23.875 C 15.550781 -23.875 14.421875 -23.640625 13.390625 -23.171875 C 12.367188 -22.703125 11.484375 -22.0625 10.734375 -21.25 C 9.984375 -20.445312 9.394531 -19.488281 8.96875 -18.375 C 8.539062 -17.257812 8.328125 -16.054688 8.328125 -14.765625 C 8.328125 -13.472656 8.539062 -12.265625 8.96875 -11.140625 C 9.394531 -10.023438 9.984375 -9.0625 10.734375 -8.25 C 11.484375 -7.445312 12.367188 -6.8125 13.390625 -6.34375 C 14.421875 -5.875 15.550781 -5.640625 16.78125 -5.640625 Z M 16.78125 -5.640625 "/></g></g><g style="fill:#004aad;fill-opacity:1;"><g transform="translate(111.229587, 261.510868)"><path style="stroke:none" d="M 15.109375 0.609375 C 13.347656 0.609375 11.734375 0.300781 10.265625 -0.3125 C 8.796875 -0.925781 7.53125 -1.78125 6.46875 -2.875 C 5.414062 -3.976562 4.585938 -5.300781 3.984375 -6.84375 C 3.378906 -8.394531 3.078125 -10.078125 3.078125 -11.890625 L 3.078125 -29.515625 L 9.515625 -29.515625 L 9.515625 -11.984375 C 9.515625 -10.015625 10.019531 -8.460938 11.03125 -7.328125 C 12.050781 -6.203125 13.394531 -5.640625 15.0625 -5.640625 C 16.738281 -5.640625 18.09375 -6.203125 19.125 -7.328125 C 20.15625 -8.460938 20.671875 -10.015625 20.671875 -11.984375 L 20.671875 -29.515625 L 27.09375 -29.515625 L 27.09375 -11.890625 C 27.09375 -10.078125 26.789062 -8.394531 26.1875 -6.84375 C 25.59375 -5.300781 24.765625 -3.976562 23.703125 -2.875 C 22.648438 -1.78125 21.390625 -0.925781 19.921875 -0.3125 C 18.453125 0.300781 16.847656 0.609375 15.109375 0.609375 Z M 15.109375 0.609375 "/></g></g><g style="fill:#004aad;fill-opacity:1;"><g transform="translate(146.432528, 261.510868)"><path style="stroke:none" d="M 3.3125 -29.515625 L 12.5625 -29.515625 C 14.082031 -29.515625 15.492188 -29.28125 16.796875 -28.8125 C 18.109375 -28.34375 19.234375 -27.679688 20.171875 -26.828125 C 21.117188 -25.984375 21.851562 -24.972656 22.375 -23.796875 C 22.90625 -22.617188 23.171875 -21.335938 23.171875 -19.953125 C 23.171875 -18.191406 22.742188 -16.597656 21.890625 -15.171875 C 21.046875 -13.753906 19.875 -12.648438 18.375 -11.859375 L 25.296875 0 L 17.796875 0 L 12.078125 -10.359375 L 9.734375 -10.359375 L 9.734375 0 L 3.3125 0 Z M 12.25 -16.03125 C 13.632812 -16.03125 14.726562 -16.375 15.53125 -17.0625 C 16.34375 -17.757812 16.75 -18.710938 16.75 -19.921875 C 16.75 -21.117188 16.335938 -22.007812 15.515625 -22.59375 C 14.691406 -23.1875 13.601562 -23.484375 12.25 -23.484375 L 9.734375 -23.484375 L 9.734375 -16.03125 Z M 12.25 -16.03125 "/></g></g><g style="fill:#004aad;fill-opacity:1;"><g transform="translate(177.405973, 261.510868)"><path style="stroke:none" d="M 3.3125 -29.515625 L 11.890625 -29.515625 C 13.390625 -29.515625 14.769531 -29.300781 16.03125 -28.875 C 17.300781 -28.457031 18.390625 -27.878906 19.296875 -27.140625 C 20.210938 -26.410156 20.925781 -25.535156 21.4375 -24.515625 C 21.945312 -23.503906 22.203125 -22.410156 22.203125 -21.234375 C 22.203125 -20.003906 21.914062 -18.890625 21.34375 -17.890625 C 20.769531 -16.890625 19.972656 -16.035156 18.953125 -15.328125 C 20.296875 -14.660156 21.347656 -13.738281 22.109375 -12.5625 C 22.878906 -11.382812 23.265625 -10.0625 23.265625 -8.59375 C 23.265625 -7.351562 23 -6.210938 22.46875 -5.171875 C 21.9375 -4.128906 21.207031 -3.21875 20.28125 -2.4375 C 19.363281 -1.664062 18.25 -1.066406 16.9375 -0.640625 C 15.632812 -0.210938 14.21875 0 12.6875 0 L 3.3125 0 Z M 12.46875 -5.28125 C 13.820312 -5.28125 14.882812 -5.597656 15.65625 -6.234375 C 16.4375 -6.867188 16.828125 -7.742188 16.828125 -8.859375 C 16.828125 -9.941406 16.445312 -10.789062 15.6875 -11.40625 C 14.925781 -12.03125 13.851562 -12.34375 12.46875 -12.34375 L 9.734375 -12.34375 L 9.734375 -5.28125 Z M 11.890625 -17.625 C 13.066406 -17.625 14.007812 -17.925781 14.71875 -18.53125 C 15.425781 -19.132812 15.78125 -19.945312 15.78125 -20.96875 C 15.78125 -22 15.425781 -22.800781 14.71875 -23.375 C 14.007812 -23.945312 13.066406 -24.234375 11.890625 -24.234375 L 9.734375 -24.234375 L 9.734375 -17.625 Z M 11.890625 -17.625 "/></g></g><g style="fill:#004aad;fill-opacity:1;"><g transform="translate(207.454209, 261.510868)"><path style="stroke:none" d="M 16.78125 0.609375 C 14.613281 0.609375 12.601562 0.210938 10.75 -0.578125 C 8.894531 -1.367188 7.285156 -2.453125 5.921875 -3.828125 C 4.554688 -5.210938 3.484375 -6.835938 2.703125 -8.703125 C 1.929688 -10.566406 1.546875 -12.585938 1.546875 -14.765625 C 1.546875 -16.929688 1.929688 -18.953125 2.703125 -20.828125 C 3.484375 -22.710938 4.554688 -24.34375 5.921875 -25.71875 C 7.285156 -27.101562 8.894531 -28.1875 10.75 -28.96875 C 12.601562 -29.75 14.613281 -30.140625 16.78125 -30.140625 C 18.925781 -30.140625 20.929688 -29.75 22.796875 -28.96875 C 24.660156 -28.1875 26.273438 -27.101562 27.640625 -25.71875 C 29.015625 -24.34375 30.085938 -22.710938 30.859375 -20.828125 C 31.640625 -18.953125 32.03125 -16.929688 32.03125 -14.765625 C 32.03125 -12.585938 31.640625 -10.566406 30.859375 -8.703125 C 30.085938 -6.835938 29.015625 -5.210938 27.640625 -3.828125 C 26.273438 -2.453125 24.660156 -1.367188 22.796875 -0.578125 C 20.929688 0.210938 18.925781 0.609375 16.78125 0.609375 Z M 16.78125 -5.640625 C 18.019531 -5.640625 19.148438 -5.863281 20.171875 -6.3125 C 21.203125 -6.769531 22.09375 -7.410156 22.84375 -8.234375 C 23.59375 -9.054688 24.179688 -10.023438 24.609375 -11.140625 C 25.035156 -12.265625 25.25 -13.472656 25.25 -14.765625 C 25.25 -16.054688 25.035156 -17.257812 24.609375 -18.375 C 24.179688 -19.488281 23.59375 -20.445312 22.84375 -21.25 C 22.09375 -22.0625 21.203125 -22.703125 20.171875 -23.171875 C 19.148438 -23.640625 18.019531 -23.875 16.78125 -23.875 C 15.550781 -23.875 14.421875 -23.640625 13.390625 -23.171875 C 12.367188 -22.703125 11.484375 -22.0625 10.734375 -21.25 C 9.984375 -20.445312 9.394531 -19.488281 8.96875 -18.375 C 8.539062 -17.257812 8.328125 -16.054688 8.328125 -14.765625 C 8.328125 -13.472656 8.539062 -12.265625 8.96875 -11.140625 C 9.394531 -10.023438 9.984375 -9.0625 10.734375 -8.25 C 11.484375 -7.445312 12.367188 -6.8125 13.390625 -6.34375 C 14.421875 -5.875 15.550781 -5.640625 16.78125 -5.640625 Z M 16.78125 -5.640625 "/></g></g><g style="fill:#004aad;fill-opacity:1;"><g transform="translate(246.049542, 261.510868)"><path style="stroke:none" d="M 12.078125 -30.046875 L 16.171875 -30.046875 L 27.796875 0 L 21.015625 0 L 19.21875 -4.984375 L 9.03125 -4.984375 L 7.265625 0 L 0.4375 0 Z M 17.234375 -10.53125 L 14.140625 -19.21875 L 11.015625 -10.53125 Z M 17.234375 -10.53125 "/></g></g><g style="fill:#004aad;fill-opacity:1;"><g transform="translate(279.313974, 261.510868)"><path style="stroke:none" d="M 9.46875 -23.484375 L 0.875 -23.484375 L 0.875 -29.515625 L 24.5 -29.515625 L 24.5 -23.484375 L 15.90625 -23.484375 L 15.90625 0 L 9.46875 0 Z M 9.46875 -23.484375 "/></g></g><g style="fill:#004aad;fill-opacity:1;"><g transform="translate(309.714664, 261.510868)"><path style="stroke:none" d="M 11.234375 0.796875 C 8.941406 0.796875 6.882812 0.28125 5.0625 -0.75 C 3.238281 -1.78125 1.769531 -3.265625 0.65625 -5.203125 L 5.15625 -8.9375 C 6.6875 -6.207031 8.695312 -4.84375 11.1875 -4.84375 C 12.300781 -4.84375 13.203125 -5.113281 13.890625 -5.65625 C 14.585938 -6.207031 14.9375 -6.921875 14.9375 -7.796875 C 14.9375 -8.617188 14.597656 -9.332031 13.921875 -9.9375 C 13.242188 -10.539062 12.023438 -11.222656 10.265625 -11.984375 C 7.535156 -13.191406 5.546875 -14.535156 4.296875 -16.015625 C 3.046875 -17.492188 2.421875 -19.265625 2.421875 -21.328125 C 2.421875 -22.617188 2.65625 -23.804688 3.125 -24.890625 C 3.59375 -25.984375 4.253906 -26.914062 5.109375 -27.6875 C 5.960938 -28.46875 6.976562 -29.070312 8.15625 -29.5 C 9.332031 -29.925781 10.625 -30.140625 12.03125 -30.140625 C 15.757812 -30.140625 18.914062 -28.539062 21.5 -25.34375 L 17.234375 -21.453125 C 16.410156 -22.546875 15.585938 -23.347656 14.765625 -23.859375 C 13.941406 -24.367188 13.03125 -24.625 12.03125 -24.625 C 11.0625 -24.625 10.289062 -24.378906 9.71875 -23.890625 C 9.144531 -23.410156 8.859375 -22.757812 8.859375 -21.9375 C 8.859375 -21.03125 9.238281 -20.28125 10 -19.6875 C 10.757812 -19.101562 11.90625 -18.472656 13.4375 -17.796875 C 16.226562 -16.566406 18.25 -15.191406 19.5 -13.671875 C 20.75 -12.160156 21.375 -10.378906 21.375 -8.328125 C 21.375 -6.972656 21.125 -5.738281 20.625 -4.625 C 20.125 -3.507812 19.429688 -2.546875 18.546875 -1.734375 C 17.671875 -0.929688 16.609375 -0.3125 15.359375 0.125 C 14.109375 0.570312 12.734375 0.796875 11.234375 0.796875 Z M 11.234375 0.796875 "/></g></g></g></svg>